<?xml version="1.0" encoding="utf-8"?>
<!-- Generator: Adobe Illustrator 15.1.0, SVG Export Plug-In . SVG Version: 6.00 Build 0)  -->
<!DOCTYPE svg PUBLIC "-//W3C//DTD SVG 1.1//EN" "http://www.w3.org/Graphics/SVG/1.1/DTD/svg11.dtd">
<svg version="1.1" id="Layer_2" xmlns="http://www.w3.org/2000/svg" xmlns:xlink="http://www.w3.org/1999/xlink" x="0px" y="0px"
	 width="308px" height="304px" viewBox="0 0 308 304" enable-background="new 0 0 308 304" xml:space="preserve">
<path fill="#FFFFFF" stroke="#000000" stroke-miterlimit="10" d="M268.751,38.077C249.771,38.36,49.78,53.923,41.134,56.859
	C26,62,19.929,71.75,20,82.333c0.081,12.006,9.357,15.468,16.167,11.5C45.75,88.25,44.25,83,48.858,79.12
	c3.813-3.211,97.559-13.368,97.559-13.368l-0.083,200.247c0,0-47.834,18.97,10.666,17.501c31.866-0.8,40.998,1.387,35.5-7.25
	c-3.131-4.919-26.165-11.253-26.165-11.253c0,0.302-0.003-25.985-0.006-59.635c9.754,1.354,35.948,3.633,51.921-7.862
	c7.299-5.253,13.125-13.25,13.125-29.5c0-15.833-8.366-26.979-14.875-31.5c-14.647-10.173-40.49-7.272-50.178-5.72
	c-0.003-36.76-0.006-66.697-0.006-66.697S204.5,59,240.636,58.389c30.186-0.51,31.28,23.686,48.032,15.944
	C300.75,68.75,284.114,37.848,268.751,38.077z M211.832,166.667c0,23.199-21.477,19.906-45.505,18.203
	c-0.001-11.23-0.002-22.812-0.003-34.157C188.794,147.697,211.832,145.12,211.832,166.667z"/>
<path fill="#FFFFFF" stroke="#000000" stroke-miterlimit="10" d="M122.333,132c4.892,1.8,7.285,8.875,13,6.667
	C141.205,136.398,138.5,123,128,120c-31.731-9.066-43.281,12.003-43.333,27.37c-0.046,13.459,11.07,40.019,45.333,26.964
	c10.719-4.084,11.93-15.023,7.959-18.618c-5.209-4.716-9.686,2.825-16.625,5.618C107.25,167,98.154,156.758,98.667,146
	C99.25,133.75,112.729,128.466,122.333,132z"/>
</svg>
